# xmcd
#
# Track frame offsets:
#	150
#	14101
#	30870
#	43681
#	57319
#	73100
#	86865
#	102276
#	115194
#	128137
#	140175
#	154894
#	168684
#
# Disc length: 2368 seconds
#
# Revision: 1
# Processed by: cddbd v1.5.1PL0 Copyright (c) Steve Scherf et al.
# Submitted via: audiograbber 1.83.01
#
DISCID=bd093e0d
DTITLE=Ken Hill - Ragged Edges
DYEAR=1900
DGENRE=Country
TTITLE0=Ragged Edges
TTITLE1=Old And Gray
TTITLE2=I Would Be Your Hero
TTITLE3=For The Love Of Me And You
TTITLE4=Every Bit Of Me Was Broken
TTITLE5=Madeira Cake
TTITLE6=Ther's No Place I'd Rather Be Tonight
TTITLE7=Sandra Samba
TTITLE8=You Can Cry On My Shoulder
TTITLE9=Take My Heart
TTITLE10=I Was Tempted Tonight
TTITLE11=Deep And Meaningful
TTITLE12=It's Time To Say Goodnight
EXTD=
EXTT0=
EXTT1=
EXTT2=
EXTT3=
EXTT4=
EXTT5=
EXTT6=
EXTT7=
EXTT8=
EXTT9=
EXTT10=
EXTT11=
EXTT12=
PLAYORDER=
